<?xml version="1.0" encoding="UTF-8" standalone="no"?>
<!-- Created with Inkscape (http://www.inkscape.org/) -->

<svg
   xmlns:dc="http://purl.org/dc/elements/1.1/"
   xmlns:cc="http://creativecommons.org/ns#"
   xmlns:rdf="http://www.w3.org/1999/02/22-rdf-syntax-ns#"
   xmlns:svg="http://www.w3.org/2000/svg"
   xmlns="http://www.w3.org/2000/svg"
   xmlns:sodipodi="http://sodipodi.sourceforge.net/DTD/sodipodi-0.dtd"
   xmlns:inkscape="http://www.inkscape.org/namespaces/inkscape"
   id="svg3687"
   version="1.1"
   inkscape:version="0.48.5 r10040"
   width="572.21637"
   height="110.19"
   xml:space="preserve"
   sodipodi:docname="logo.ai"><metadata
     id="metadata3693"><rdf:RDF><cc:Work
         rdf:about=""><dc:format>image/svg+xml</dc:format><dc:type
           rdf:resource="http://purl.org/dc/dcmitype/StillImage" /><dc:title></dc:title></cc:Work></rdf:RDF></metadata><defs
     id="defs3691"><clipPath
       clipPathUnits="userSpaceOnUse"
       id="clipPath3701"><path
         d="m 0,134.373 509.704,0 L 509.704,0 0,0 0,134.373 z"
         id="path3703"
         inkscape:connector-curvature="0" /></clipPath></defs><sodipodi:namedview
     pagecolor="#ffffff"
     bordercolor="#666666"
     borderopacity="1"
     objecttolerance="10"
     gridtolerance="10"
     guidetolerance="10"
     inkscape:pageopacity="0"
     inkscape:pageshadow="2"
     inkscape:window-width="1680"
     inkscape:window-height="988"
     id="namedview3689"
     showgrid="false"
     fit-margin-top="0"
     fit-margin-left="0"
     fit-margin-right="0"
     fit-margin-bottom="0"
     inkscape:zoom="0.49597413"
     inkscape:cx="286.108"
     inkscape:cy="55.095001"
     inkscape:window-x="-8"
     inkscape:window-y="-8"
     inkscape:window-maximized="1"
     inkscape:current-layer="g3695" /><g
     id="g3695"
     inkscape:groupmode="layer"
     inkscape:label="logo"
     transform="matrix(1.25,0,0,-1.25,-32.457,139.07812)"><g
       id="g3697"><g
         id="g3699"
         clip-path="url(#clipPath3701)"><g
           id="g3705"
           transform="translate(73.1216,42.0098)"><path
             d="m 0,0 c 0,-2.769 -0.581,-5.315 -1.741,-7.636 -1.161,-2.323 -2.748,-4.31 -4.757,-5.963 -2.009,-1.652 -4.422,-2.923 -7.234,-3.816 -2.813,-0.894 -5.872,-1.337 -9.176,-1.341 l -0.777,-0.001 -17.38,-0.002 0,0.002 -0.031,-0.002 c -2.833,0 -5.13,2.298 -5.13,5.131 0,2.831 2.297,5.129 5.13,5.129 0.298,0 0.591,-0.026 0.875,-0.075 l 16.409,0 0.904,0 c 3.839,0 6.922,0.826 9.243,2.478 2.322,1.653 3.484,3.684 3.484,6.096 0,3.215 -1.118,5.559 -3.35,7.032 -2.233,1.475 -5.36,2.211 -9.377,2.211 -3.306,0 -6.431,0.424 -9.379,1.273 -2.947,0.848 -5.514,2.121 -7.702,3.818 -2.189,1.696 -3.93,3.796 -5.225,6.296 -1.296,2.501 -1.942,5.404 -1.942,8.709 0,3.393 0.646,6.341 1.942,8.842 1.295,2.5 3.08,4.598 5.359,6.295 2.277,1.699 4.911,2.948 7.903,3.753 2.992,0.803 6.142,1.2 9.445,1.205 l 0.074,0 15,0 0.041,0 c 2.832,0 5.13,-2.297 5.13,-5.128 0,-2.833 -2.298,-5.13 -5.13,-5.13 -0.303,0 -0.6,0.026 -0.89,0.077 l -14.352,0 -0.274,0 c -1.876,-0.002 -3.686,-0.157 -5.426,-0.47 -1.741,-0.312 -3.238,-0.847 -4.487,-1.608 -1.252,-0.758 -2.257,-1.786 -3.016,-3.081 -0.759,-1.295 -1.139,-2.881 -1.139,-4.755 0,-3.841 1.363,-6.453 4.085,-7.837 2.726,-1.384 6.052,-2.078 9.983,-2.078 3.304,0 6.363,-0.334 9.176,-1.004 2.813,-0.67 5.225,-1.786 7.234,-3.349 2.009,-1.563 3.596,-3.573 4.757,-6.029 C -0.581,6.587 0,3.571 0,0"
             style="fill:#ffffff;fill-opacity:1;fill-rule:nonzero;stroke:none"
             id="path3707"
             inkscape:connector-curvature="0" /></g><g
           id="g3709"
           transform="translate(435.2427,67.1865)"><path
             d="m 0,0 c 0,3.305 0.626,6.431 1.877,9.377 1.248,2.948 2.991,5.516 5.224,7.704 2.233,2.188 4.8,3.908 7.704,5.159 2.902,1.249 6.05,1.875 9.444,1.875 3.306,0 6.431,-0.626 9.377,-1.875 2.948,-1.251 5.516,-2.971 7.704,-5.159 2.188,-2.188 3.929,-4.756 5.225,-7.704 C 47.849,6.431 48.496,3.305 48.496,0 l 0,-38.984 c 0,-1.429 -0.513,-2.634 -1.54,-3.617 -1.025,-0.982 -2.21,-1.475 -3.551,-1.475 -1.429,0 -2.634,0.493 -3.616,1.475 -0.982,0.983 -1.474,2.188 -1.474,3.617 l 0,38.984 c 0,1.876 -0.378,3.662 -1.137,5.358 -0.76,1.697 -1.765,3.193 -3.017,4.489 -1.249,1.295 -2.745,2.299 -4.487,3.014 -1.74,0.713 -3.549,1.072 -5.425,1.072 -1.964,0 -3.796,-0.359 -5.491,-1.072 C 17.059,12.146 15.563,11.142 14.269,9.847 12.973,8.551 11.968,7.055 11.254,5.358 10.538,3.662 10.184,1.876 10.184,0 l 0,-38.984 c 0,-1.429 -0.515,-2.634 -1.543,-3.617 -1.026,-0.982 -2.211,-1.475 -3.551,-1.475 -1.428,0 -2.635,0.493 -3.616,1.475 C 0.491,-41.618 0,-40.413 0,-38.984 L 0,0 z m -52.719,-19.96 c 0,-1.877 0.379,-3.663 1.138,-5.359 0.76,-1.699 1.765,-3.195 3.015,-4.489 1.25,-1.295 2.746,-2.298 4.489,-3.013 1.74,-0.714 3.549,-1.073 5.425,-1.073 1.964,0 3.796,0.359 5.492,1.073 1.698,0.715 3.194,1.718 4.488,3.013 1.296,1.294 2.301,2.79 3.015,4.489 0.716,1.696 1.071,3.482 1.071,5.359 l 0,19.96 c 0,1.876 -0.379,3.662 -1.139,5.358 -0.758,1.697 -1.763,3.193 -3.013,4.489 -1.251,1.295 -2.747,2.299 -4.489,3.014 -1.742,0.713 -3.549,1.072 -5.425,1.072 -1.965,0 -3.797,-0.359 -5.493,-1.072 -1.698,-0.715 -3.194,-1.719 -4.488,-3.014 C -49.929,8.551 -50.934,7.055 -51.647,5.358 -52.361,3.662 -52.719,1.876 -52.719,0 l 0,-19.96 z M -62.899,0 c 0,3.305 0.624,6.431 1.875,9.377 1.25,2.948 2.993,5.516 5.223,7.704 2.233,2.188 4.802,3.908 7.704,5.159 2.902,1.249 6.051,1.875 9.445,1.875 3.304,0 6.429,-0.626 9.377,-1.875 2.948,-1.251 5.515,-2.971 7.702,-5.159 2.189,-2.188 3.931,-4.756 5.226,-7.704 1.294,-2.946 1.943,-6.072 1.943,-9.377 l 0,-19.96 c 0,-3.305 -0.625,-6.431 -1.876,-9.378 -1.249,-2.949 -2.991,-5.515 -5.224,-7.704 -2.233,-2.187 -4.823,-3.906 -7.771,-5.157 -2.948,-1.251 -6.073,-1.877 -9.377,-1.877 -3.306,0 -6.431,0.626 -9.378,1.877 -2.948,1.251 -5.515,2.97 -7.702,5.157 -2.189,2.189 -3.932,4.755 -5.226,7.704 -1.294,2.947 -1.941,6.073 -1.941,9.378 l 0,19.96 z m -49.908,18.487 c 0,1.43 0.491,2.636 1.473,3.617 0.983,0.983 2.19,1.475 3.617,1.475 1.161,0 2.21,-0.38 3.149,-1.139 0.938,-0.759 1.541,-1.764 1.808,-3.014 4.199,3.125 9.111,4.689 14.737,4.689 0,0 0.781,-0.069 2.346,-0.201 1.562,-0.134 3.258,-0.469 5.09,-1.005 1.83,-0.536 3.505,-1.318 5.024,-2.346 1.518,-1.026 2.277,-2.477 2.277,-4.353 0,-1.518 -0.49,-2.746 -1.473,-3.684 -0.983,-0.938 -2.19,-1.406 -3.618,-1.406 -1.161,0 -2.188,0.313 -3.081,0.938 -2.234,1.249 -4.6,1.875 -7.1,1.875 -1.966,0 -3.775,-0.359 -5.426,-1.072 -1.651,-0.715 -3.127,-1.697 -4.42,-2.947 -1.296,-1.25 -2.301,-2.679 -3.015,-4.287 -0.716,-1.607 -1.118,-3.35 -1.207,-5.226 l 0,-39.385 c 0,-1.429 -0.489,-2.634 -1.473,-3.617 -0.983,-0.982 -2.188,-1.475 -3.618,-1.475 -1.338,0 -2.521,0.493 -3.55,1.475 -1.025,0.983 -1.54,2.188 -1.54,3.617 l 0,39.789 0,17.682 z m -58.481,20.498 c 0,1.429 0.493,2.634 1.475,3.617 0.983,0.982 2.187,1.474 3.617,1.474 1.341,0 2.523,-0.492 3.549,-1.474 1.029,-0.983 1.542,-2.188 1.542,-3.617 l 0,-16.076 25.99,0 c 1.428,0 2.634,-0.492 3.616,-1.474 0.983,-0.983 1.475,-2.188 1.475,-3.617 0,-1.339 -0.492,-2.524 -1.475,-3.55 -0.982,-1.027 -2.188,-1.541 -3.616,-1.541 l -25.99,0 0,-32.687 c 0,-1.877 0.378,-3.663 1.139,-5.359 0.759,-1.699 1.765,-3.195 3.013,-4.489 1.251,-1.295 2.747,-2.298 4.488,-3.013 1.743,-0.714 3.551,-1.073 5.426,-1.073 2.858,0 5.449,0.76 7.769,2.278 2.324,1.518 4.064,3.616 5.225,6.297 0.448,0.982 1.072,1.762 1.877,2.343 0.802,0.58 1.74,0.872 2.814,0.872 1.428,0 2.633,-0.514 3.616,-1.542 0.982,-1.026 1.473,-2.209 1.473,-3.55 0,-0.624 -0.133,-1.249 -0.402,-1.875 -1.785,-3.93 -3.929,-6.922 -6.431,-8.976 -2.499,-2.055 -4.934,-3.528 -7.3,-4.421 -2.366,-0.892 -4.376,-1.384 -6.029,-1.473 -1.652,-0.089 -2.522,-0.135 -2.612,-0.135 -3.304,0 -6.431,0.626 -9.377,1.877 -2.948,1.251 -5.516,2.97 -7.704,5.157 -2.189,2.189 -3.929,4.755 -5.225,7.704 -1.294,2.947 -1.943,6.073 -1.943,9.378 l 0,58.945 z m -23.915,0 c 0,1.429 0.491,2.634 1.473,3.617 0.983,0.982 2.189,1.474 3.618,1.474 1.339,0 2.522,-0.492 3.549,-1.474 1.027,-0.983 1.541,-2.188 1.541,-3.617 l 0,-77.969 c 0,-1.429 -0.492,-2.634 -1.474,-3.617 -0.983,-0.982 -2.188,-1.475 -3.616,-1.475 -1.34,0 -2.524,0.493 -3.551,1.475 -1.026,0.983 -1.54,2.188 -1.54,3.617 l 0,77.969 z m -62.098,-19.961 c 0,1.428 0.491,2.633 1.474,3.617 0.982,0.983 2.187,1.474 3.617,1.474 1.34,0 2.523,-0.491 3.55,-1.474 1.027,-0.984 1.54,-2.189 1.54,-3.617 l 0,-38.984 c 0,-1.877 0.357,-3.663 1.072,-5.359 0.714,-1.699 1.72,-3.195 3.015,-4.489 1.295,-1.295 2.79,-2.298 4.487,-3.013 1.698,-0.714 3.528,-1.073 5.493,-1.073 1.875,0 3.684,0.359 5.426,1.073 1.741,0.715 3.237,1.718 4.487,3.013 1.251,1.294 2.256,2.79 3.015,4.489 0.76,1.696 1.139,3.482 1.139,5.359 l 0,38.984 c 0,1.428 0.491,2.633 1.473,3.617 0.983,0.983 2.189,1.474 3.617,1.474 1.34,0 2.524,-0.491 3.55,-1.474 1.028,-0.984 1.54,-2.189 1.54,-3.617 l 0,-38.984 c 0,-3.305 -0.646,-6.431 -1.942,-9.378 -1.294,-2.949 -3.036,-5.515 -5.224,-7.704 -2.188,-2.187 -4.756,-3.906 -7.703,-5.157 -2.948,-1.251 -6.073,-1.877 -9.378,-1.877 -3.393,0 -6.542,0.626 -9.444,1.877 -2.902,1.251 -5.471,2.97 -7.703,5.157 -2.234,2.189 -3.975,4.755 -5.226,7.704 -1.25,2.947 -1.875,6.073 -1.875,9.378 l 0,38.984 z M -352.355,0 c 0,3.305 0.558,6.431 1.676,9.377 1.116,2.948 2.7,5.516 4.754,7.704 2.056,2.188 4.467,3.908 7.236,5.159 2.768,1.249 5.849,1.875 9.244,1.875 3.75,0 7.144,-0.805 10.181,-2.411 3.035,-1.609 5.582,-3.708 7.636,-6.298 2.054,2.59 4.6,4.689 7.636,6.298 3.036,1.606 6.43,2.411 10.181,2.411 3.305,0 6.364,-0.626 9.178,-1.875 2.813,-1.251 5.224,-2.971 7.233,-5.159 2.01,-2.188 3.595,-4.756 4.756,-7.704 1.162,-2.946 1.743,-6.072 1.743,-9.377 l 0,-38.984 c 0,-1.429 -0.515,-2.634 -1.542,-3.617 -1.027,-0.982 -2.21,-1.475 -3.549,-1.475 -1.43,0 -2.636,0.493 -3.618,1.475 -0.982,0.983 -1.473,2.188 -1.473,3.617 l 0,38.984 c 0,3.84 -1.162,7.123 -3.484,9.847 -2.322,2.723 -5.403,4.086 -9.244,4.086 -4.018,0 -7.145,-1.363 -9.378,-4.086 -2.232,-2.724 -3.348,-6.007 -3.348,-9.847 l 0,-38.984 c 0,-1.429 -0.514,-2.634 -1.541,-3.617 -1.027,-0.982 -2.21,-1.475 -3.55,-1.475 -1.429,0 -2.635,0.493 -3.617,1.475 -0.984,0.983 -1.474,2.188 -1.474,3.617 l 0,38.984 c 0,3.84 -1.161,7.123 -3.483,9.847 -2.322,2.723 -5.403,4.086 -9.243,4.086 -4.02,0 -7.146,-1.363 -9.378,-4.086 -2.234,-2.724 -3.35,-6.007 -3.35,-9.847 l 0,-38.984 c 0,-1.429 -0.514,-2.634 -1.54,-3.617 -1.028,-0.982 -2.212,-1.475 -3.551,-1.475 -1.428,0 -2.633,0.493 -3.616,1.475 -0.983,0.983 -1.475,2.188 -1.475,3.617 l 0,38.984 z"
             style="fill:#ffffff;fill-opacity:1;fill-rule:nonzero;stroke:none"
             id="path3711"
             inkscape:connector-curvature="0" /></g><g
           id="g3713"
           transform="translate(212.5933,81.3833)"><path
             d="m 0,0 0,-34.171 c 0,-5.711 -4.632,-10.344 -10.344,-10.344 -5.712,0 -10.344,4.631 -10.344,10.344 l 10e-4,28.904 0,0.035 c 0.006,1.447 0.943,2.691 2.253,3.11 l 0.07,0.028 13.9,5.193 0.002,-0.002 c 0.368,0.145 0.772,0.225 1.191,0.225 1.801,0 3.262,-1.461 3.262,-3.261 L -0.01,0.007 0,0 z"
             style="fill:#b0cb21;fill-opacity:1;fill-rule:evenodd;stroke:none"
             id="path3715"
             inkscape:connector-curvature="0" /></g><g
           id="g3717"
           transform="translate(197.2095,89.9512)"><path
             d="m 0,0 c 1.136,0 2.056,-0.918 2.056,-2.054 0,-1.134 -0.92,-2.054 -2.056,-2.054 -1.133,0 -2.054,0.92 -2.054,2.054 C -2.054,-0.918 -1.133,0 0,0"
             style="fill:#b0cb21;fill-opacity:1;fill-rule:evenodd;stroke:none"
             id="path3719"
             inkscape:connector-curvature="0" /></g><g
           id="g3721"
           transform="translate(207.979,97.0459)"><path
             d="m 0,0 c 1.802,0 3.261,-1.46 3.261,-3.26 0,-1.801 -1.459,-3.262 -3.261,-3.262 -1.801,0 -3.26,1.461 -3.26,3.262 0,1.8 1.459,3.26 3.26,3.26"
             style="fill:#b0cb21;fill-opacity:1;fill-rule:evenodd;stroke:none"
             id="path3723"
             inkscape:connector-curvature="0" /></g><g
           id="g3725"
           transform="translate(195.7065,98.7983)"><path
             d="m 0,0 c 1.365,0 2.472,-1.105 2.472,-2.471 0,-1.364 -1.107,-2.471 -2.472,-2.471 -1.364,0 -2.47,1.107 -2.47,2.471 C -2.47,-1.105 -1.364,0 0,0"
             style="fill:#b0cb21;fill-opacity:1;fill-rule:evenodd;stroke:none"
             id="path3727"
             inkscape:connector-curvature="0" /></g><g
           id="g3729"
           transform="translate(206.2065,105.5566)"><path
             d="m 0,0 c 1.458,0 2.641,-1.182 2.641,-2.64 0,-1.459 -1.183,-2.641 -2.641,-2.641 -1.459,0 -2.641,1.182 -2.641,2.641 C -2.641,-1.182 -1.459,0 0,0"
             style="fill:#b0cb21;fill-opacity:1;fill-rule:evenodd;stroke:none"
             id="path3731"
             inkscape:connector-curvature="0" /></g><g
           id="g3733"
           transform="translate(200.4155,102.2168)"><path
             d="m 0,0 c 0.815,0 1.475,-0.659 1.475,-1.473 0,-0.813 -0.66,-1.473 -1.475,-1.473 -0.813,0 -1.474,0.66 -1.474,1.473 C -1.474,-0.659 -0.813,0 0,0"
             style="fill:#b0cb21;fill-opacity:1;fill-rule:evenodd;stroke:none"
             id="path3735"
             inkscape:connector-curvature="0" /></g><g
           id="g3737"
           transform="translate(201.3032,95.1294)"><path
             d="M 0,0 C 0.907,0 1.643,-0.735 1.643,-1.644 1.643,-2.55 0.907,-3.287 0,-3.287 c -0.908,0 -1.645,0.737 -1.645,1.643 C -1.645,-0.735 -0.908,0 0,0"
             style="fill:#b0cb21;fill-opacity:1;fill-rule:evenodd;stroke:none"
             id="path3739"
             inkscape:connector-curvature="0" /></g><g
           id="g3741"
           transform="translate(200.1772,108.6748)"><path
             d="m 0,0 c 0.908,0 1.644,-0.735 1.644,-1.644 0,-0.907 -0.736,-1.643 -1.644,-1.643 -0.907,0 -1.644,0.736 -1.644,1.643 C -1.644,-0.735 -0.907,0 0,0"
             style="fill:#b0cb21;fill-opacity:1;fill-rule:evenodd;stroke:none"
             id="path3743"
             inkscape:connector-curvature="0" /></g></g></g></g></svg>